<?xml version="1.0" encoding="UTF-8"?>
<svg width="371px" height="365px" viewBox="0 0 371 365" version="1.1" xmlns="http://www.w3.org/2000/svg" xmlns:xlink="http://www.w3.org/1999/xlink">
    <!-- Generator: Sketch 60.1 (88133) - https://sketch.com -->
    <title>BYNboldBlack</title>
    <desc>Created with Sketch.</desc>
    <defs>
        <path d="M336.49,0.86 L336.49,66.65 L146.26,66.65 L146.26,70.659 L255,70.66 L255,132.88 L146.26,132.879 L146.26,135.5 L241.12,135.5 L242.461,135.5039 C260.3085,135.6091 276.8615,137.8178 292.12,142.13 C307.76,146.55 321.36,153.435 332.92,162.785 C344.48,172.135 353.575,184.035 360.205,198.485 C366.835,212.935 370.15,230.02 370.15,249.74 C370.15,269.8 366.92,287.055 360.46,301.505 C354,315.955 344.905,327.94 333.175,337.46 C321.445,346.98 307.42,353.95 291.1,358.37 C274.78,362.79 256.76,365 237.04,365 L237.04,365 L66.19,365 L66.19,132.879 L0,132.88 L0,70.66 L66.19,70.659 L66.19,0.86 L336.49,0.86 Z M227.86,198.23 L146.26,198.23 L146.26,299.72 L228.37,299.72 C247.75,299.72 262.88,296.065 273.76,288.755 C284.64,281.445 290.08,268.1 290.08,248.72 C290.08,239.2 288.55,231.21 285.49,224.75 C282.43,218.29 278.095,213.105 272.485,209.195 C266.875,205.285 260.245,202.48 252.595,200.78 C244.945,199.08 236.7,198.23 227.86,198.23 L227.86,198.23 Z" id="path-1"></path>
    </defs>
    <g id="Page-1" stroke="none" stroke-width="1" fill="none" fill-rule="evenodd">
        <g id="BYNboldBlack">
            <g>
                <mask id="mask-2" fill="white">
                    <use xlink:href="#path-1"></use>
                </mask>
                <g id="Clip-2"></g>
                <polygon id="Fill-1" fill="#000000" mask="url(#mask-2)" points="-5 -4.14 375.15 -4.14 375.15 370 -5 370"></polygon>
            </g>
        </g>
    </g>
</svg>