<?xml version="1.0" encoding="UTF-8"?>
<svg width="340px" height="365px" viewBox="0 0 340 365" version="1.1" xmlns="http://www.w3.org/2000/svg" xmlns:xlink="http://www.w3.org/1999/xlink">
    <!-- Generator: Sketch 60.1 (88133) - https://sketch.com -->
    <title>BYNmediumBlack</title>
    <desc>Created with Sketch.</desc>
    <defs>
        <path d="M306.19,0.86 L306.19,55.94 L118.51,55.94 L118.51,75.74 L255,75.74 L255,130.82 L118.51,130.819 L118.51,140.6 L215.41,140.6 L216.5469,140.6024 C241.869,140.7083 262.57,144.3625 278.65,151.565 C294.97,158.875 307.55,168.14 316.39,179.36 C325.23,190.58 331.265,202.735 334.495,215.825 C337.725,228.915 339.34,241.07 339.34,252.29 C339.34,263.51 337.725,275.75 334.495,289.01 C331.265,302.27 325.23,314.51 316.39,325.73 C307.55,336.95 294.97,346.3 278.65,353.78 C262.33,361.26 241.25,365 215.41,365 L215.41,365 L54.76,365 L54.76,130.819 L0,130.82 L0,75.74 L54.76,75.74 L54.76,0.86 L306.19,0.86 Z M211.84,192.62 L118.51,192.62 L118.51,312.98 L212.86,312.98 C221.36,312.98 229.35,312.13 236.83,310.43 C244.31,308.73 250.94,305.585 256.72,300.995 C262.5,296.405 267.09,290.2 270.49,282.38 C273.89,274.56 275.59,264.7 275.59,252.8 C275.59,241.24 273.635,231.635 269.725,223.985 C265.815,216.335 260.715,210.215 254.425,205.625 C248.135,201.035 241.25,197.72 233.77,195.68 C226.29,193.64 218.98,192.62 211.84,192.62 L211.84,192.62 Z" id="path-1"></path>
    </defs>
    <g id="Page-1" stroke="none" stroke-width="1" fill="none" fill-rule="evenodd">
        <g id="BYNmediumBlack" transform="translate(0.000000, -651.000000)">
            <g transform="translate(0.000000, 651.000000)">
                <mask id="mask-2" fill="white">
                    <use xlink:href="#path-1"></use>
                </mask>
                <g id="Clip-2"></g>
                <polygon id="Fill-1" fill="#000000" mask="url(#mask-2)" points="-5 -4.14 344.34 -4.14 344.34 370 -5 370"></polygon>
            </g>
        </g>
    </g>
</svg>