<?xml version="1.0" encoding="UTF-8"?>
<svg width="324px" height="365px" viewBox="0 0 324 365" version="1.1" xmlns="http://www.w3.org/2000/svg" xmlns:xlink="http://www.w3.org/1999/xlink">
    <!-- Generator: Sketch 60.1 (88133) - https://sketch.com -->
    <title>BYNregularBlack</title>
    <desc>Created with Sketch.</desc>
    <defs>
        <path d="M291.17,0.86 L291.17,41.66 L90.23,41.66 L90.23,83.819 L255,83.82 L255,124.62 L90.23,124.619 L90.23,148.76 L211.61,148.76 L212.6887,148.7628 C248.2017,148.9479 275.4671,158.297 294.485,176.81 C313.695,195.51 323.3,222.37 323.3,257.39 C323.3,292.07 313.695,318.675 294.485,337.205 C275.275,355.735 247.65,365 211.61,365 L211.61,365 L41.78,365 L41.78,124.619 L0,124.62 L0,83.82 L41.78,83.819 L41.78,0.86 L291.17,0.86 Z M195.8,189.56 L90.23,189.56 L90.23,324.2 L195.8,324.2 C248.84,324.2 275.36,301.93 275.36,257.39 C275.36,212.17 248.84,189.56 195.8,189.56 L195.8,189.56 Z" id="path-1"></path>
    </defs>
    <g id="Page-1" stroke="none" stroke-width="1" fill="none" fill-rule="evenodd">
        <g id="BYNregularBlack">
            <g>
                <mask id="mask-2" fill="white">
                    <use xlink:href="#path-1"></use>
                </mask>
                <g id="Clip-2"></g>
                <polygon id="Fill-1" fill="#000000" mask="url(#mask-2)" points="-5 -4.14 328.3 -4.14 328.3 370 -5 370"></polygon>
            </g>
        </g>
    </g>
</svg>