<?xml version="1.0" encoding="UTF-8"?>
<svg width="303px" height="365px" viewBox="0 0 303 365" version="1.1" xmlns="http://www.w3.org/2000/svg" xmlns:xlink="http://www.w3.org/1999/xlink">
    <!-- Generator: Sketch 60.1 (88133) - https://sketch.com -->
    <title>BYNthinBlack</title>
    <desc>Created with Sketch.</desc>
    <defs>
        <path d="M279.01,0.36 L279.01,19.74 L52.57,19.74 L52.57,120.09 L255,120.09 L255,139.47 L52.57,139.47 L52.57,159.99 L193.84,159.99 L194.8578,159.9927 C228.3731,160.1677 254.7238,169.0068 273.91,186.51 C293.29,204.19 302.98,229.35 302.98,261.99 C302.98,277.63 300.43,291.74 295.33,304.32 C290.23,316.9 282.835,327.695 273.145,336.705 C263.455,345.715 251.81,352.6 238.21,357.36 C224.61,362.12 209.31,364.5 192.31,364.5 L192.31,364.5 L30.13,364.5 L30.13,139.47 L0,139.47 L0,120.09 L30.13,120.09 L30.13,0.36 L279.01,0.36 Z M190.78,179.37 L52.57,179.37 L52.57,345.12 L190.27,345.12 C218.15,345.12 240.165,337.895 256.315,323.445 C272.465,308.995 280.54,288.51 280.54,261.99 C280.54,235.47 272.55,215.07 256.57,200.79 C240.59,186.51 218.66,179.37 190.78,179.37 L190.78,179.37 Z" id="path-1"></path>
    </defs>
    <g id="Page-1" stroke="none" stroke-width="1" fill="none" fill-rule="evenodd">
        <g id="BYNthinBlack" transform="translate(-41.000000, -676.500000)">
            <g transform="translate(41.000000, 676.500000)">
                <mask id="mask-2" fill="white">
                    <use xlink:href="#path-1"></use>
                </mask>
                <g id="Clip-2"></g>
                <polygon id="Fill-1" fill="#000000" mask="url(#mask-2)" points="-5 -4.64 307.98 -4.64 307.98 369.5 -5 369.5"></polygon>
            </g>
        </g>
    </g>
</svg>